<svg aria-hidden="true" style="position: absolute; width: 0; height: 0; overflow: hidden;" version="1.1" xmlns="http://www.w3.org/2000/svg" xmlns:xlink="http://www.w3.org/1999/xlink">
<defs>
<symbol id="icon-android" viewBox="0 0 27 32">
<path fill="#636d85" style="fill: var(--color1, #636d85)" d="M5.485 12.781v7.238c0 0.962-0.741 1.731-1.684 1.731-0.937 0-1.843-0.775-1.843-1.731v-7.238c0-0.944 0.906-1.719 1.843-1.719 0.924 0 1.684 0.775 1.684 1.719zM6.146 22.594c0 1.025 0.808 1.85 1.812 1.85h1.218l0.018 3.819c0 2.306 3.38 2.288 3.38 0v-3.819h2.278v3.819c0 2.294 3.398 2.3 3.398 0v-3.819h1.237c0.992 0 1.8-0.825 1.8-1.85v-11.212h-15.141v11.212zM21.33 10.775h-15.251c0-2.675 1.567-5 3.894-6.213l-1.169-2.206c-0.171-0.306 0.263-0.5 0.41-0.237l1.188 2.225c2.137-0.969 4.592-0.919 6.631 0l1.182-2.219c0.153-0.269 0.582-0.069 0.41 0.237l-1.169 2.2c2.308 1.213 3.875 3.537 3.875 6.213zM10.879 7.306c0-0.356-0.282-0.656-0.643-0.656-0.349 0-0.624 0.3-0.624 0.656s0.282 0.656 0.624 0.656c0.361 0 0.643-0.3 0.643-0.656zM17.822 7.306c0-0.356-0.282-0.656-0.624-0.656-0.361 0-0.643 0.3-0.643 0.656s0.282 0.656 0.643 0.656c0.343 0 0.624-0.3 0.624-0.656zM23.626 11.062c-0.924 0-1.684 0.756-1.684 1.719v7.238c0 0.962 0.759 1.731 1.684 1.731 0.943 0 1.843-0.775 1.843-1.731v-7.238c0-0.963-0.906-1.719-1.843-1.719z"></path>
</symbol>
<symbol id="icon-apple" viewBox="0 0 26 32">
<path fill="#636d85" style="fill: var(--color1, #636d85)" d="M17.41 5.128c-1.117 1.343-2.904 2.403-4.69 2.252-0.223-1.817 0.651-3.747 1.675-4.939 1.117-1.381 3.071-2.365 4.653-2.441 0.186 1.892-0.54 3.747-1.638 5.128zM19.030 7.739c-2.587-0.151-4.802 1.495-6.030 1.495-1.247 0-3.127-1.419-5.174-1.381-2.662 0.038-5.137 1.571-6.496 4.012-2.792 4.882-0.726 12.11 1.973 16.084 1.321 1.968 2.904 4.125 4.988 4.049 1.973-0.076 2.755-1.306 5.137-1.306 2.401 0 3.090 1.306 5.174 1.268 2.159-0.038 3.518-1.968 4.839-3.936 1.508-2.233 2.122-4.409 2.159-4.523-0.037-0.038-4.169-1.646-4.206-6.49-0.037-4.049 3.257-5.979 3.406-6.093-1.861-2.801-4.765-3.103-5.77-3.179z"></path>
</symbol>
<symbol id="icon-app-store" viewBox="0 0 108 32">
<path fill="#fff" style="fill: var(--color2, #fff)" d="M105.297 27.935c0 0.394-0.077 0.785-0.229 1.149s-0.373 0.695-0.653 0.974c-0.28 0.279-0.612 0.5-0.977 0.65s-0.757 0.228-1.153 0.228h-98.57c-0.799 0.001-1.565-0.315-2.131-0.878s-0.884-1.327-0.885-2.123v-23.931c0.001-0.797 0.319-1.561 0.885-2.125s1.332-0.88 2.131-0.88h98.569c0.396 0 0.787 0.078 1.153 0.229s0.697 0.372 0.977 0.651c0.28 0.279 0.502 0.61 0.653 0.975s0.229 0.755 0.229 1.15l0.001 23.931z"></path>
<path fill="#a6a6a6" style="fill: var(--color3, #a6a6a6)" d="M102.285 31.635h-98.57c-0.984-0-1.928-0.39-2.625-1.083s-1.089-1.634-1.091-2.616v-23.931c0.001-0.982 0.393-1.923 1.090-2.618s1.641-1.085 2.625-1.085h98.569c0.985 0.001 1.929 0.392 2.625 1.086s1.089 1.635 1.091 2.617v23.931c0.001 2.040-1.668 3.699-3.715 3.699z"></path>
<path fill="#000" style="fill: var(--color4, #000)" d="M105.297 27.935c0 0.394-0.077 0.785-0.229 1.149s-0.373 0.695-0.653 0.974c-0.28 0.279-0.612 0.5-0.977 0.65s-0.757 0.228-1.153 0.228h-98.57c-0.799 0.001-1.565-0.315-2.131-0.878s-0.884-1.327-0.885-2.123v-23.931c0.001-0.797 0.319-1.561 0.885-2.125s1.332-0.88 2.131-0.88h98.569c0.396 0 0.787 0.078 1.153 0.229s0.697 0.372 0.977 0.651c0.28 0.279 0.502 0.61 0.653 0.975s0.229 0.755 0.229 1.15l0.001 23.931z"></path>
<path fill="#fff" style="fill: var(--color2, #fff)" d="M23.669 15.803c-0.023-2.525 2.073-3.754 2.169-3.811-1.187-1.726-3.027-1.962-3.674-1.981-1.545-0.162-3.044 0.922-3.831 0.922-0.803 0-2.015-0.907-3.322-0.88-1.681 0.026-3.254 0.997-4.117 2.504-1.78 3.074-0.453 7.591 1.253 10.075 0.853 1.218 1.85 2.575 3.155 2.528 1.277-0.052 1.753-0.811 3.294-0.811 1.526 0 1.974 0.811 3.305 0.78 1.37-0.021 2.233-1.222 3.056-2.45 0.986-1.394 1.382-2.768 1.398-2.839-0.031-0.011-2.66-1.012-2.687-4.038zM21.155 8.377c0.687-0.856 1.156-2.021 1.026-3.204-0.994 0.044-2.237 0.686-2.952 1.523-0.633 0.738-1.199 1.948-1.053 3.086 1.116 0.083 2.263-0.562 2.979-1.405z"></path>
<path fill="#000" style="fill: var(--color4, #000)" d="M102.285 0.302h-52.797l20.68 31.333h32.117c0.984-0.001 1.928-0.391 2.625-1.085s1.089-1.635 1.091-2.617v-23.928c-0.002-0.982-0.394-1.923-1.091-2.617s-1.64-1.085-2.625-1.086v0z"></path>
<path fill="#fff" style="fill: var(--color2, #fff)" d="M42.236 23.416h-1.784l-0.977-3.063h-3.397l-0.931 3.063h-1.737l3.366-10.427h2.079l3.381 10.427zM39.18 19.068l-0.884-2.723c-0.093-0.278-0.269-0.933-0.527-1.964h-0.031c-0.104 0.443-0.269 1.098-0.496 1.964l-0.869 2.723h2.808zM50.877 19.564c0 1.279-0.348 2.289-1.045 3.031-0.624 0.66-1.399 0.99-2.324 0.99-0.999 0-1.717-0.355-2.153-1.066v3.945h-1.675v-8.096c0-0.803-0.021-1.627-0.062-2.471h1.473l0.093 1.192h0.031c0.559-0.898 1.406-1.347 2.544-1.347 0.889 0 1.632 0.35 2.226 1.051 0.593 0.703 0.891 1.626 0.891 2.771zM49.17 19.625c0-0.732-0.165-1.335-0.496-1.811-0.362-0.494-0.848-0.742-1.458-0.742-0.413 0-0.789 0.138-1.124 0.41-0.336 0.274-0.556 0.632-0.659 1.076-0.046 0.166-0.072 0.337-0.078 0.508v1.254c0 0.546 0.168 1.008 0.504 1.385 0.336 0.376 0.773 0.565 1.31 0.565 0.631 0 1.122-0.244 1.473-0.727 0.352-0.485 0.528-1.124 0.528-1.919zM59.547 19.564c0 1.279-0.348 2.289-1.045 3.031-0.625 0.66-1.399 0.99-2.325 0.99-0.998 0-1.717-0.355-2.153-1.066v3.945h-1.675v-8.096c0-0.803-0.021-1.627-0.062-2.471h1.473l0.093 1.192h0.031c0.558-0.898 1.405-1.347 2.544-1.347 0.889 0 1.631 0.35 2.226 1.051 0.592 0.703 0.891 1.626 0.891 2.771zM57.84 19.625c0-0.732-0.166-1.335-0.497-1.811-0.362-0.494-0.847-0.742-1.457-0.742-0.413 0-0.789 0.138-1.126 0.41-0.336 0.274-0.555 0.632-0.658 1.076-0.051 0.207-0.079 0.375-0.079 0.508v1.254c0 0.546 0.169 1.008 0.504 1.385 0.336 0.375 0.773 0.565 1.312 0.565 0.632 0 1.123-0.244 1.473-0.727 0.352-0.485 0.528-1.124 0.528-1.919zM69.242 20.491c0 0.888-0.311 1.609-0.929 2.166-0.681 0.608-1.63 0.913-2.848 0.913-1.125 0-2.027-0.216-2.707-0.65l0.387-1.392c0.735 0.434 1.541 0.65 2.42 0.65 0.632 0 1.123-0.143 1.473-0.425 0.351-0.284 0.529-0.663 0.529-1.136 0-0.424-0.147-0.779-0.435-1.068s-0.769-0.557-1.442-0.804c-1.83-0.681-2.746-1.677-2.746-2.987 0-0.856 0.324-1.556 0.969-2.104s1.502-0.82 2.567-0.82c0.951 0 1.744 0.165 2.373 0.495l-0.42 1.362c-0.593-0.32-1.261-0.48-2.009-0.48-0.591 0-1.054 0.145-1.386 0.433-0.279 0.258-0.42 0.572-0.42 0.945 0 0.411 0.161 0.753 0.482 1.021 0.278 0.247 0.786 0.516 1.519 0.804 0.9 0.362 1.562 0.784 1.985 1.268 0.427 0.484 0.639 1.088 0.639 1.808zM74.794 17.151h-1.847v3.65c0 0.929 0.325 1.392 0.977 1.392 0.299 0 0.548-0.025 0.744-0.078l0.047 1.269c-0.33 0.123-0.765 0.185-1.303 0.185-0.661 0-1.179-0.201-1.551-0.604s-0.559-1.077-0.559-2.027v-3.79h-1.1v-1.254h1.1v-1.377l1.645-0.495v1.872h1.847v1.257zM83.107 19.595c0 1.156-0.332 2.105-0.993 2.847-0.692 0.764-1.613 1.145-2.761 1.145-1.107 0-1.988-0.366-2.645-1.097-0.657-0.733-0.985-1.656-0.985-2.769 0-1.165 0.339-2.119 1.015-2.861 0.678-0.743 1.591-1.114 2.739-1.114 1.107 0 1.995 0.367 2.667 1.099 0.643 0.71 0.963 1.627 0.963 2.752zM81.371 19.633c0-0.689-0.149-1.28-0.449-1.774-0.351-0.597-0.853-0.896-1.505-0.896-0.671 0-1.186 0.298-1.536 0.896-0.3 0.494-0.449 1.095-0.449 1.805 0 0.689 0.149 1.282 0.449 1.775 0.362 0.597 0.867 0.896 1.521 0.896 0.641 0 1.143-0.305 1.505-0.91 0.308-0.506 0.463-1.101 0.463-1.791zM88.554 17.367c-0.175-0.031-0.351-0.047-0.528-0.046-0.589 0-1.045 0.221-1.365 0.666-0.279 0.392-0.418 0.887-0.418 1.485v3.945h-1.675v-5.151c0.002-0.789-0.015-1.578-0.049-2.367h1.459l0.061 1.439h0.046c0.177-0.494 0.456-0.893 0.837-1.192 0.349-0.261 0.774-0.402 1.211-0.403 0.155 0 0.295 0.011 0.419 0.031l0.002 1.594zM96.045 19.301c0.004 0.254-0.017 0.508-0.061 0.758h-5.025c0.019 0.743 0.262 1.312 0.729 1.703 0.423 0.349 0.971 0.525 1.644 0.525 0.744 0 1.423-0.118 2.033-0.355l0.263 1.159c-0.713 0.31-1.555 0.465-2.527 0.465-1.169 0-2.087-0.343-2.755-1.028-0.666-0.686-1-1.607-1-2.761 0-1.133 0.311-2.077 0.932-2.83 0.651-0.804 1.529-1.206 2.635-1.206 1.087 0 1.909 0.402 2.468 1.206 0.442 0.637 0.665 1.427 0.665 2.365zM94.447 18.868c0.012-0.496-0.098-0.923-0.325-1.284-0.29-0.465-0.736-0.697-1.334-0.697-0.547 0-0.993 0.226-1.333 0.681-0.279 0.361-0.445 0.795-0.496 1.299l3.488 0.002z"></path>
<path fill="#fff" style="fill: var(--color2, #fff)" d="M35.595 10.959c-0.466 0-0.869-0.023-1.204-0.061v-5.041c0.469-0.072 0.943-0.108 1.418-0.107 1.921 0 2.805 0.943 2.805 2.479 0 1.772-1.045 2.73-3.019 2.73zM35.876 6.397c-0.259 0-0.48 0.016-0.663 0.053v3.832c0.099 0.016 0.289 0.023 0.556 0.023 1.259 0 1.975-0.715 1.975-2.053 0-1.193-0.648-1.855-1.868-1.855zM41.371 10.998c-1.083 0-1.784-0.806-1.784-1.901 0-1.141 0.716-1.954 1.845-1.954 1.067 0 1.784 0.768 1.784 1.894 0 1.155-0.739 1.961-1.845 1.961zM41.402 7.743c-0.595 0-0.976 0.555-0.976 1.33 0 0.761 0.389 1.316 0.968 1.316s0.968-0.593 0.968-1.331c0-0.752-0.381-1.315-0.96-1.315zM49.39 7.219l-1.159 3.695h-0.755l-0.48-1.605c-0.119-0.393-0.219-0.791-0.298-1.193h-0.016c-0.060 0.403-0.175 0.806-0.297 1.193l-0.511 1.605h-0.763l-1.090-3.695h0.846l0.42 1.757c0.099 0.418 0.182 0.813 0.251 1.186h0.016c0.061-0.311 0.159-0.7 0.305-1.178l0.526-1.764h0.671l0.504 1.726c0.122 0.418 0.221 0.829 0.298 1.217h0.022c0.053-0.38 0.138-0.784 0.251-1.217l0.45-1.726 0.808-0.001zM53.655 10.914h-0.823v-2.122c0-0.653-0.251-0.981-0.747-0.981-0.488 0-0.823 0.418-0.823 0.905v2.198h-0.823v-2.639c0-0.327-0.008-0.677-0.031-1.057h0.724l0.038 0.57h0.023c0.222-0.395 0.671-0.646 1.174-0.646 0.778 0 1.288 0.593 1.288 1.558l-0.001 2.213zM55.926 10.914h-0.824v-5.391h0.824v5.391zM58.928 10.998c-1.082 0-1.784-0.806-1.784-1.901 0-1.141 0.716-1.954 1.845-1.954 1.068 0 1.784 0.768 1.784 1.894 0.001 1.155-0.739 1.961-1.845 1.961zM58.958 7.743c-0.595 0-0.976 0.555-0.976 1.33 0 0.761 0.39 1.316 0.967 1.316 0.58 0 0.968-0.593 0.968-1.331 0.001-0.752-0.379-1.315-0.959-1.315zM64.018 10.914l-0.060-0.425h-0.022c-0.251 0.342-0.618 0.509-1.083 0.509-0.664 0-1.135-0.464-1.135-1.088 0-0.912 0.793-1.384 2.165-1.384v-0.068c0-0.487-0.258-0.73-0.769-0.73-0.365 0-0.686 0.092-0.968 0.274l-0.167-0.54c0.343-0.213 0.77-0.32 1.272-0.32 0.968 0 1.457 0.509 1.457 1.529v1.361c0 0.373 0.017 0.662 0.053 0.882l-0.742-0.001zM63.905 9.073c-0.914 0-1.373 0.221-1.373 0.745 0 0.388 0.236 0.577 0.565 0.577 0.419 0 0.808-0.319 0.808-0.752v-0.57zM68.705 10.914l-0.039-0.593h-0.023c-0.237 0.448-0.634 0.677-1.189 0.677-0.893 0-1.555-0.784-1.555-1.886 0-1.156 0.686-1.97 1.622-1.97 0.496 0 0.847 0.167 1.045 0.502h0.016v-2.121h0.824v4.395c0 0.357 0.009 0.692 0.031 0.996h-0.733zM68.583 8.739c0-0.517-0.343-0.958-0.867-0.958-0.61 0-0.983 0.54-0.983 1.3 0 0.745 0.387 1.255 0.967 1.255 0.517 0 0.883-0.449 0.883-0.981v-0.616zM74.633 10.998c-1.082 0-1.783-0.806-1.783-1.901 0-1.141 0.717-1.954 1.845-1.954 1.068 0 1.784 0.768 1.784 1.894 0.001 1.155-0.738 1.961-1.845 1.961zM74.663 7.743c-0.594 0-0.975 0.555-0.975 1.33 0 0.761 0.389 1.316 0.967 1.316 0.58 0 0.968-0.593 0.968-1.331 0.001-0.752-0.379-1.315-0.96-1.315zM80.906 10.914h-0.824v-2.122c0-0.653-0.251-0.981-0.747-0.981-0.488 0-0.823 0.418-0.823 0.905v2.198h-0.824v-2.639c0-0.327-0.008-0.677-0.031-1.057h0.725l0.038 0.57h0.023c0.221-0.395 0.671-0.646 1.174-0.646 0.778 0 1.289 0.593 1.289 1.558v2.213zM86.445 7.834h-0.906v1.794c0 0.457 0.159 0.685 0.479 0.685 0.145 0 0.267-0.016 0.365-0.038l0.023 0.624c-0.159 0.061-0.373 0.092-0.639 0.092-0.649 0-1.037-0.357-1.037-1.293v-1.863h-0.54v-0.616h0.54v-0.677l0.809-0.244v0.92h0.906v0.617zM90.804 10.914h-0.823v-2.106c0-0.661-0.251-0.996-0.747-0.996-0.427 0-0.824 0.289-0.824 0.874v2.228h-0.823v-5.391h0.823v2.22h0.017c0.259-0.403 0.635-0.601 1.114-0.601 0.784 0 1.263 0.608 1.263 1.574v2.198zM95.269 9.264h-2.471c0.015 0.7 0.48 1.095 1.167 1.095 0.365 0 0.701-0.061 0.999-0.175l0.128 0.57c-0.351 0.152-0.763 0.228-1.243 0.228-1.159 0-1.845-0.73-1.845-1.862s0.703-1.985 1.752-1.985c0.947 0 1.541 0.7 1.541 1.757 0.005 0.125-0.004 0.25-0.028 0.372zM94.514 8.678c0-0.57-0.288-0.973-0.815-0.973-0.473 0-0.847 0.411-0.9 0.973h1.715z"></path>
</symbol>
<symbol id="icon-baseline-language" viewBox="0 0 30 32">
<path fill="#fff" style="fill: var(--color2, #fff)" d="M15.097 2.667c-6.951 0-12.58 5.973-12.58 13.333s5.629 13.333 12.58 13.333c6.964 0 12.605-5.973 12.605-13.333s-5.642-13.333-12.605-13.333zM23.824 10.667h-3.715c-0.394-1.651-0.978-3.245-1.738-4.747 2.297 0.837 4.233 2.522 5.453 4.747zM15.11 5.387c1.045 1.6 1.864 3.373 2.405 5.28h-4.81c0.541-1.907 1.36-3.68 2.405-5.28zM5.363 18.667c-0.201-0.853-0.327-1.747-0.327-2.667s0.126-1.813 0.327-2.667h4.256c-0.101 0.88-0.176 1.76-0.176 2.667s0.076 1.787 0.176 2.667h-4.256zM6.396 21.333h3.715c0.403 1.667 0.982 3.267 1.738 4.747-2.299-0.833-4.236-2.519-5.453-4.747zM10.111 10.667h-3.715c1.216-2.228 3.153-3.914 5.453-4.747-0.76 1.501-1.344 3.095-1.738 4.747zM15.11 26.613c-1.045-1.6-1.864-3.373-2.405-5.28h4.81c-0.541 1.907-1.36 3.68-2.405 5.28zM18.057 18.667h-5.893c-0.113-0.88-0.201-1.76-0.201-2.667s0.088-1.8 0.201-2.667h5.893c0.113 0.867 0.202 1.76 0.202 2.667s-0.088 1.787-0.202 2.667zM18.371 26.080c0.756-1.48 1.335-3.080 1.738-4.747h3.715c-1.22 2.224-3.156 3.909-5.453 4.747zM20.6 18.667c0.101-0.88 0.176-1.76 0.176-2.667s-0.075-1.787-0.176-2.667h4.256c0.202 0.853 0.327 1.747 0.327 2.667s-0.126 1.813-0.327 2.667h-4.256z"></path>
</symbol>
<symbol id="icon-btc" viewBox="0 0 24 32">
<path fill="#c4c4c4" style="fill: var(--color5, #c4c4c4)" opacity="0.1" d="M1.649 4.844h4.86l0.429-3.287h2.573l0.214 3.287h2.573v-3.287h2.573l0.286 3.287h0.929c6.632 2.63 4.383 7.861 2.43 10.148 7.432 3.859 2.573 12.363-0.786 12.078l-3.002 0.286v3.145h-2.644v-3.145h-2.501v3.145h-2.716v-3.145h-5.431v-4.002h2.573v-14.579h-2.358v-3.931z"></path>
<path fill="#000" style="fill: var(--color4, #000)" opacity="0.1" d="M1.649 4.844h4.86l0.429-3.287h2.573l0.214 3.287h2.573v-3.287h2.573l0.286 3.287h0.929c6.632 2.63 4.383 7.861 2.43 10.148 7.432 3.859 2.573 12.363-0.786 12.078l-3.002 0.286v3.145h-2.644v-3.145h-2.501v3.145h-2.716v-3.145h-5.431v-4.002h2.573v-14.579h-2.358v-3.931z"></path>
<path fill="#c4c4c4" style="fill: var(--color5, #c4c4c4)" d="M6.494 1.084c-0.094 0.094-0.173 0.242-0.175 0.33s-0 0.745 0.003 1.46l0.005 1.301-4.961 0.040-0.361 0.337v4.538l0.18 0.169c0.173 0.162 0.224 0.169 1.329 0.191l1.149 0.022v13.186l-1.149 0.022c-1.105 0.021-1.156 0.029-1.329 0.191l-0.18 0.169v4.538l0.361 0.337 4.961 0.040-0.005 1.301c-0.003 0.715-0.004 1.372-0.003 1.46s0.080 0.236 0.175 0.33l0.172 0.171h1.573c1.562 0 1.575-0.001 1.77-0.168l0.196-0.168 0.043-2.931h1.391v1.463c0 1.46 0 1.463 0.172 1.633l0.172 0.171h1.547c0.927 0 1.601-0.029 1.681-0.071 0.3-0.16 0.346-0.4 0.346-1.826v-1.349l0.846-0.049c1.961-0.114 2.915-0.487 4.156-1.56 0.907-0.784 1.756-2.208 2.125-3.563 0.168-0.62 0.186-0.803 0.19-1.969 0.004-1.137-0.015-1.358-0.161-1.911-0.513-1.943-1.241-3.401-2.893-4.204l-0.6-0.291 0.308-0.307c1.61-1.605 1.995-3.915 1.032-6.189-0.762-1.8-2.486-3.189-4.457-3.594l-0.545-0.112v-1.378c0-1.457-0.044-1.695-0.346-1.855-0.081-0.043-0.754-0.072-1.681-0.072h-1.547l-0.172 0.171c-0.171 0.17-0.172 0.173-0.172 1.633v1.463h-1.391l-0.021-1.466-0.021-1.466-0.196-0.168c-0.195-0.166-0.208-0.168-1.77-0.168h-1.573l-0.172 0.171zM8.981 3.646v1.482l0.18 0.169c0.177 0.165 0.209 0.169 1.592 0.191 0.914 0.015 1.506-0.005 1.679-0.056 0.421-0.124 0.467-0.31 0.467-1.91v-1.357h1.399v1.482c0 1.824-0.035 1.759 1.002 1.856 1.237 0.116 2.101 0.512 2.957 1.353 0.643 0.632 1.048 1.265 1.332 2.085 0.167 0.482 0.193 0.667 0.196 1.39 0.003 0.694-0.023 0.911-0.156 1.292-0.204 0.585-0.522 1.084-0.998 1.567-0.145 0.147-0.353 0.324-0.559 0.484-0.427 0.33-1.119 0.546-1.115 1.085 0.003 0.403 0.18 0.54 0.843 0.653 0.769 0.131 1.19 0.268 1.736 0.569 1.205 0.662 1.797 2.167 2.045 3.686 0.132 0.808 0.089 1.906-0.104 2.663-0.525 2.061-1.497 3.436-3.323 4.030-0.638 0.207-0.751 0.221-2.086 0.262-1.368 0.041-1.417 0.048-1.592 0.211l-0.18 0.168v2.964h-1.399v-1.362c0-1.584-0.050-1.782-0.48-1.909-0.158-0.046-0.792-0.066-1.666-0.053-1.383 0.022-1.415 0.026-1.592 0.191l-0.18 0.169v2.964h-1.399v-1.357c0-1.602-0.045-1.788-0.467-1.904-0.164-0.045-1.156-0.074-2.559-0.074l-2.291-0v-2.641l0.962-0.001c1.197-0 1.463-0.064 1.597-0.384 0.149-0.353 0.149-14.723 0-15.076-0.135-0.32-0.4-0.384-1.597-0.384l-0.962-0v-2.641l2.291-0c1.403-0 2.395-0.029 2.559-0.074 0.421-0.116 0.467-0.302 0.467-1.904v-1.357h1.399v1.482zM8.666 8.222c-0.388 0.212-0.382 0.165-0.383 2.896l-0.001 2.236c-0 0.185 0.073 0.361 0.204 0.491s0.308 0.203 0.493 0.203h1.718c2.12 0 2.514-0.045 3.128-0.356 1.236-0.627 1.845-2.23 1.356-3.57-0.406-1.111-1.213-1.74-2.444-1.907-0.734-0.099-3.885-0.094-4.070 0.007zM13.146 9.626c0.647 0.299 0.99 0.908 0.923 1.638-0.046 0.504-0.265 0.912-0.62 1.157-0.493 0.34-0.684 0.37-2.352 0.373l-1.557 0.003v-3.336l1.627 0.001c1.559 0.001 1.641 0.007 1.979 0.164zM8.49 16.958c-0.134 0.133-0.209 0.313-0.209 0.501v2.878c0 2.043 0.026 3.22 0.072 3.306 0.175 0.325 0.329 0.344 2.858 0.344 2.845 0 3.265-0.044 4.041-0.419 1.233-0.596 1.912-1.744 1.914-3.235 0.002-1.595-0.837-2.816-2.331-3.394-0.337-0.13-0.558-0.141-3.248-0.164l-2.593-0.022c-0.188-0.002-0.369 0.072-0.503 0.205zM14.659 18.238c0.456 0.223 0.849 0.623 1.063 1.084 0.121 0.261 0.149 0.452 0.149 1.016-0.001 0.865-0.155 1.254-0.696 1.763-0.579 0.544-0.707 0.565-3.374 0.565h-2.261v-4.665l4.722 0.043 0.396 0.193z"></path>
<path fill="#000" style="fill: var(--color4, #000)" d="M6.494 1.084c-0.094 0.094-0.173 0.242-0.175 0.33s-0 0.745 0.003 1.46l0.005 1.301-4.961 0.040-0.361 0.337v4.538l0.18 0.169c0.173 0.162 0.224 0.169 1.329 0.191l1.149 0.022v13.186l-1.149 0.022c-1.105 0.021-1.156 0.029-1.329 0.191l-0.18 0.169v4.538l0.361 0.337 4.961 0.040-0.005 1.301c-0.003 0.715-0.004 1.372-0.003 1.46s0.080 0.236 0.175 0.33l0.172 0.171h1.573c1.562 0 1.575-0.001 1.77-0.168l0.196-0.168 0.043-2.931h1.391v1.463c0 1.46 0 1.463 0.172 1.633l0.172 0.171h1.547c0.927 0 1.601-0.029 1.681-0.071 0.3-0.16 0.346-0.4 0.346-1.826v-1.349l0.846-0.049c1.961-0.114 2.915-0.487 4.156-1.56 0.907-0.784 1.756-2.208 2.125-3.563 0.168-0.62 0.186-0.803 0.19-1.969 0.004-1.137-0.015-1.358-0.161-1.911-0.513-1.943-1.241-3.401-2.893-4.204l-0.6-0.291 0.308-0.307c1.61-1.605 1.995-3.915 1.032-6.189-0.762-1.8-2.486-3.189-4.457-3.594l-0.545-0.112v-1.378c0-1.457-0.044-1.695-0.346-1.855-0.081-0.043-0.754-0.072-1.681-0.072h-1.547l-0.172 0.171c-0.171 0.17-0.172 0.173-0.172 1.633v1.463h-1.391l-0.021-1.466-0.021-1.466-0.196-0.168c-0.195-0.166-0.208-0.168-1.77-0.168h-1.573l-0.172 0.171zM8.981 3.646v1.482l0.18 0.169c0.177 0.165 0.209 0.169 1.592 0.191 0.914 0.015 1.506-0.005 1.679-0.056 0.421-0.124 0.467-0.31 0.467-1.91v-1.357h1.399v1.482c0 1.824-0.035 1.759 1.002 1.856 1.237 0.116 2.101 0.512 2.957 1.353 0.643 0.632 1.048 1.265 1.332 2.085 0.167 0.482 0.193 0.667 0.196 1.39 0.003 0.694-0.023 0.911-0.156 1.292-0.204 0.585-0.522 1.084-0.998 1.567-0.145 0.147-0.353 0.324-0.559 0.484-0.427 0.33-1.119 0.546-1.115 1.085 0.003 0.403 0.18 0.54 0.843 0.653 0.769 0.131 1.19 0.268 1.736 0.569 1.205 0.662 1.797 2.167 2.045 3.686 0.132 0.808 0.089 1.906-0.104 2.663-0.525 2.061-1.497 3.436-3.323 4.030-0.638 0.207-0.751 0.221-2.086 0.262-1.368 0.041-1.417 0.048-1.592 0.211l-0.18 0.168v2.964h-1.399v-1.362c0-1.584-0.050-1.782-0.48-1.909-0.158-0.046-0.792-0.066-1.666-0.053-1.383 0.022-1.415 0.026-1.592 0.191l-0.18 0.169v2.964h-1.399v-1.357c0-1.602-0.045-1.788-0.467-1.904-0.164-0.045-1.156-0.074-2.559-0.074l-2.291-0v-2.641l0.962-0.001c1.197-0 1.463-0.064 1.597-0.384 0.149-0.353 0.149-14.723 0-15.076-0.135-0.32-0.4-0.384-1.597-0.384l-0.962-0v-2.641l2.291-0c1.403-0 2.395-0.029 2.559-0.074 0.421-0.116 0.467-0.302 0.467-1.904v-1.357h1.399v1.482zM8.666 8.222c-0.388 0.212-0.382 0.165-0.383 2.896l-0.001 2.236c-0 0.185 0.073 0.361 0.204 0.491s0.308 0.203 0.493 0.203h1.718c2.12 0 2.514-0.045 3.128-0.356 1.236-0.627 1.845-2.23 1.356-3.57-0.406-1.111-1.213-1.74-2.444-1.907-0.734-0.099-3.885-0.094-4.070 0.007zM13.146 9.626c0.647 0.299 0.99 0.908 0.923 1.638-0.046 0.504-0.265 0.912-0.62 1.157-0.493 0.34-0.684 0.37-2.352 0.373l-1.557 0.003v-3.336l1.627 0.001c1.559 0.001 1.641 0.007 1.979 0.164zM8.49 16.958c-0.134 0.133-0.209 0.313-0.209 0.501v2.878c0 2.043 0.026 3.22 0.072 3.306 0.175 0.325 0.329 0.344 2.858 0.344 2.845 0 3.265-0.044 4.041-0.419 1.233-0.596 1.912-1.744 1.914-3.235 0.002-1.595-0.837-2.816-2.331-3.394-0.337-0.13-0.558-0.141-3.248-0.164l-2.593-0.022c-0.188-0.002-0.369 0.072-0.503 0.205zM14.659 18.238c0.456 0.223 0.849 0.623 1.063 1.084 0.121 0.261 0.149 0.452 0.149 1.016-0.001 0.865-0.155 1.254-0.696 1.763-0.579 0.544-0.707 0.565-3.374 0.565h-2.261v-4.665l4.722 0.043 0.396 0.193z"></path>
<path fill="none" stroke="#fff" style="stroke: var(--color2, #fff)" stroke-linejoin="miter" stroke-linecap="butt" stroke-miterlimit="4" stroke-width="0.5717" d="M6.494 1.084c-0.094 0.094-0.173 0.242-0.175 0.33s-0 0.745 0.003 1.46l0.005 1.301-4.961 0.040-0.361 0.337v4.538l0.18 0.169c0.173 0.162 0.224 0.169 1.329 0.191l1.149 0.022v13.186l-1.149 0.022c-1.105 0.021-1.156 0.029-1.329 0.191l-0.18 0.169v4.538l0.361 0.337 4.961 0.040-0.005 1.301c-0.003 0.715-0.004 1.372-0.003 1.46s0.080 0.236 0.175 0.33l0.172 0.171h1.573c1.562 0 1.575-0.001 1.77-0.168l0.196-0.168 0.043-2.931h1.391v1.463c0 1.46 0 1.463 0.172 1.633l0.172 0.171h1.547c0.927 0 1.601-0.029 1.681-0.071 0.3-0.16 0.346-0.4 0.346-1.826v-1.349l0.846-0.049c1.961-0.114 2.915-0.487 4.156-1.56 0.907-0.784 1.756-2.208 2.125-3.563 0.168-0.62 0.186-0.803 0.19-1.969 0.004-1.137-0.015-1.358-0.161-1.911-0.513-1.943-1.241-3.401-2.893-4.204l-0.6-0.291 0.308-0.307c1.61-1.605 1.995-3.915 1.032-6.189-0.762-1.8-2.486-3.189-4.457-3.594l-0.545-0.112v-1.378c0-1.457-0.044-1.695-0.346-1.855-0.081-0.043-0.754-0.072-1.681-0.072h-1.547l-0.172 0.171c-0.171 0.17-0.172 0.173-0.172 1.633v1.463h-1.391l-0.021-1.466-0.021-1.466-0.196-0.168c-0.195-0.166-0.208-0.168-1.77-0.168h-1.573l-0.172 0.171zM8.981 3.646v1.482l0.18 0.169c0.177 0.165 0.209 0.169 1.592 0.191 0.914 0.015 1.506-0.005 1.679-0.056 0.421-0.124 0.467-0.31 0.467-1.91v-1.357h1.399v1.482c0 1.824-0.035 1.759 1.002 1.856 1.237 0.116 2.101 0.512 2.957 1.353 0.643 0.632 1.048 1.265 1.332 2.085 0.167 0.482 0.193 0.667 0.196 1.39 0.003 0.694-0.023 0.911-0.156 1.292-0.204 0.585-0.522 1.084-0.998 1.567-0.145 0.147-0.353 0.324-0.559 0.484-0.427 0.33-1.119 0.546-1.115 1.085 0.003 0.403 0.18 0.54 0.843 0.653 0.769 0.131 1.19 0.268 1.736 0.569 1.205 0.662 1.797 2.167 2.045 3.686 0.132 0.808 0.089 1.906-0.104 2.663-0.525 2.061-1.497 3.436-3.323 4.030-0.638 0.207-0.751 0.221-2.086 0.262-1.368 0.041-1.417 0.048-1.592 0.211l-0.18 0.168v2.964h-1.399v-1.362c0-1.584-0.050-1.782-0.48-1.909-0.158-0.046-0.792-0.066-1.666-0.053-1.383 0.022-1.415 0.026-1.592 0.191l-0.18 0.169v2.964h-1.399v-1.357c0-1.602-0.045-1.788-0.467-1.904-0.164-0.045-1.156-0.074-2.559-0.074l-2.291-0v-2.641l0.962-0.001c1.197-0 1.463-0.064 1.597-0.384 0.149-0.353 0.149-14.723 0-15.076-0.135-0.32-0.4-0.384-1.597-0.384l-0.962-0v-2.641l2.291-0c1.403-0 2.395-0.029 2.559-0.074 0.421-0.116 0.467-0.302 0.467-1.904v-1.357h1.399v1.482zM8.666 8.222c-0.388 0.212-0.382 0.165-0.383 2.896l-0.001 2.236c-0 0.185 0.073 0.361 0.204 0.491s0.308 0.203 0.493 0.203h1.718c2.12 0 2.514-0.045 3.128-0.356 1.236-0.627 1.845-2.23 1.356-3.57-0.406-1.111-1.213-1.74-2.444-1.907-0.734-0.099-3.885-0.094-4.070 0.007zM13.146 9.626c0.647 0.299 0.99 0.908 0.923 1.638-0.046 0.504-0.265 0.912-0.62 1.157-0.493 0.34-0.684 0.37-2.352 0.373l-1.557 0.003v-3.336l1.627 0.001c1.559 0.001 1.641 0.007 1.979 0.164zM8.49 16.958c-0.134 0.133-0.209 0.313-0.209 0.501v2.878c0 2.043 0.026 3.22 0.072 3.306 0.175 0.325 0.329 0.344 2.858 0.344 2.845 0 3.265-0.044 4.041-0.419 1.233-0.596 1.912-1.744 1.914-3.235 0.002-1.595-0.837-2.816-2.331-3.394-0.337-0.13-0.558-0.141-3.248-0.164l-2.593-0.022c-0.188-0.002-0.369 0.072-0.503 0.205zM14.659 18.238c0.456 0.223 0.849 0.623 1.063 1.084 0.121 0.261 0.149 0.452 0.149 1.016-0.001 0.865-0.155 1.254-0.696 1.763-0.579 0.544-0.707 0.565-3.374 0.565h-2.261v-4.665l4.722 0.043 0.396 0.193z"></path>
</symbol>
<symbol id="icon-circle" viewBox="0 0 32 32">
<path fill="#ff9c27" style="fill: var(--color6, #ff9c27)" d="M32 16c0 8.837-7.163 16-16 16s-16-7.163-16-16c0-8.837 7.163-16 16-16s16 7.163 16 16z"></path>
</symbol>
<symbol id="icon-dollar" viewBox="0 0 32 32">
<path fill="#fff" style="fill: var(--color2, #fff)" d="M15.999 3.727c-2.427 0-4.8 0.72-6.818 2.068s-3.591 3.265-4.52 5.508c-0.929 2.243-1.172 4.71-0.698 7.091s1.642 4.568 3.359 6.284c1.716 1.716 3.903 2.885 6.284 3.359s4.848 0.231 7.091-0.698c2.243-0.929 4.159-2.502 5.508-4.52s2.068-4.391 2.068-6.818c-0.004-3.254-1.298-6.373-3.599-8.674s-5.42-3.595-8.674-3.599zM15.999 25.545c-1.888 0-3.733-0.56-5.303-1.609s-2.793-2.54-3.516-4.284c-0.722-1.744-0.912-3.663-0.543-5.515s1.277-3.552 2.612-4.887c1.335-1.335 3.036-2.244 4.887-2.612s3.771-0.179 5.515 0.543c1.744 0.722 3.235 1.946 4.284 3.516s1.609 3.415 1.609 5.303c-0.003 2.531-1.010 4.957-2.799 6.746s-4.216 2.796-6.747 2.799zM20.999 18.273c-0.001 0.964-0.384 1.888-1.066 2.57s-1.606 1.065-2.57 1.066v0.455c0 0.362-0.144 0.708-0.399 0.964s-0.603 0.399-0.964 0.399c-0.362 0-0.709-0.144-0.964-0.399s-0.399-0.603-0.399-0.964v-0.455h-1.364c-0.362 0-0.709-0.144-0.964-0.399s-0.399-0.603-0.399-0.964 0.144-0.708 0.399-0.964c0.256-0.256 0.603-0.399 0.964-0.399h4.091c0.241 0 0.472-0.096 0.643-0.266s0.266-0.402 0.266-0.643c0-0.241-0.096-0.472-0.266-0.643s-0.402-0.266-0.643-0.266h-2.727c-0.964 0-1.889-0.383-2.571-1.065s-1.065-1.607-1.065-2.571c0-0.964 0.383-1.889 1.065-2.571s1.607-1.065 2.571-1.065v-0.455c0-0.362 0.144-0.709 0.399-0.964s0.603-0.399 0.964-0.399c0.362 0 0.708 0.144 0.964 0.399s0.399 0.603 0.399 0.964v0.455h1.364c0.362 0 0.709 0.144 0.964 0.399s0.399 0.603 0.399 0.964c0 0.362-0.144 0.709-0.399 0.964s-0.603 0.399-0.964 0.399h-4.091c-0.241 0-0.472 0.096-0.643 0.266s-0.266 0.402-0.266 0.643c0 0.241 0.096 0.472 0.266 0.643s0.402 0.266 0.643 0.266h2.727c0.964 0.001 1.888 0.385 2.57 1.066s1.065 1.606 1.066 2.57z"></path>
</symbol>
<symbol id="icon-download" viewBox="0 0 32 32">
<path fill="#fff" style="fill: var(--color2, #fff)" d="M6.667 2c-0.736 0-1.333 0.597-1.333 1.333v6.667h-2.651c-0.027-0-0.054 0-0.080 0.002-0.199 0.010-0.386 0.063-0.552 0.15-0.14 0.073-0.269 0.172-0.379 0.296-0.209 0.235-0.336 0.545-0.337 0.884v17.335c0 0.736 0.597 1.333 1.333 1.333h26.667c0.736 0 1.333-0.597 1.333-1.333v-17.314c0.003-0.2-0.039-0.402-0.128-0.59-0.014-0.029-0.029-0.058-0.045-0.087-0.031-0.055-0.066-0.108-0.105-0.158-0.132-0.171-0.297-0.301-0.48-0.388-0.153-0.073-0.323-0.118-0.501-0.128-0.029-0.002-0.059-0.002-0.089-0.002h-2.651v-6.667c0-0.736-0.597-1.333-1.333-1.333h-18.667zM4 27.333v-13.333l11.2 8.4c0.474 0.356 1.126 0.356 1.6 0l11.2-8.4v13.333h-24zM17.333 8c0-0.736-0.597-1.333-1.333-1.333s-1.333 0.597-1.333 1.333v4.114l-1.057-1.057c-0.521-0.521-1.365-0.521-1.886 0s-0.521 1.365 0 1.886l3.336 3.336c0.127 0.126 0.273 0.222 0.43 0.287 0.157 0.065 0.33 0.101 0.51 0.101s0.353-0.036 0.51-0.101c0.156-0.065 0.302-0.16 0.43-0.287l3.336-3.336c0.521-0.521 0.521-1.365 0-1.886s-1.365-0.521-1.886 0l-1.057 1.057v-4.114z"></path>
</symbol>
<symbol id="icon-ellipse" viewBox="0 0 32 32">
<path fill="#627fe3" style="fill: var(--color7, #627fe3)" opacity="0.15" d="M31.416 16c0 8.514-6.902 15.416-15.416 15.416s-15.416-6.902-15.416-15.416c0-8.514 6.902-15.416 15.416-15.416s15.416 6.902 15.416 15.416z"></path>
<path fill="none" stroke="#c4c4c4" style="stroke: var(--color5, #c4c4c4)" stroke-linejoin="miter" stroke-linecap="butt" stroke-miterlimit="4" stroke-width="1.169" d="M31.416 16c0 8.514-6.902 15.416-15.416 15.416s-15.416-6.902-15.416-15.416c0-8.514 6.902-15.416 15.416-15.416s15.416 6.902 15.416 15.416z"></path>
<path fill="none" stroke="#000" style="stroke: var(--color4, #000)" stroke-linejoin="miter" stroke-linecap="butt" stroke-miterlimit="4" stroke-width="1.169" d="M31.416 16c0 8.514-6.902 15.416-15.416 15.416s-15.416-6.902-15.416-15.416c0-8.514 6.902-15.416 15.416-15.416s15.416 6.902 15.416 15.416z"></path>
</symbol>
<symbol id="icon-google-play" viewBox="0 0 108 32">
<path fill="#000" style="fill: var(--color4, #000)" d="M104.246 31.996h-100.236c-2.245 0-4.009-1.759-4.009-3.999v-23.992c0-2.239 1.764-3.999 4.009-3.999h100.236c2.245 0 4.010 1.759 4.010 3.999v23.992c0 2.239-1.764 3.999-4.010 3.999z"></path>
<path fill="#a6a6a6" style="fill: var(--color3, #a6a6a6)" d="M104.246 0.647c1.844 0 3.368 1.519 3.368 3.359v23.992c0 1.839-1.524 3.359-3.368 3.359h-100.236c-1.844 0-3.368-1.52-3.368-3.359v-23.992c0-1.839 1.524-3.359 3.368-3.359h100.236zM104.246 0.008h-100.236c-2.245 0-4.009 1.839-4.009 3.999v23.992c0 2.239 1.764 3.999 4.009 3.999h100.236c2.245 0 4.010-1.759 4.010-3.999v-23.992c0-2.159-1.764-3.999-4.010-3.999z"></path>
<path fill="#fff" style="fill: var(--color2, #fff)" d="M38.009 8.163c0 0.64-0.16 1.2-0.561 1.599-0.481 0.48-1.042 0.72-1.764 0.72s-1.283-0.24-1.764-0.72c-0.481-0.48-0.722-1.040-0.722-1.759s0.241-1.28 0.722-1.759c0.481-0.48 1.042-0.72 1.764-0.72 0.321 0 0.642 0.080 0.962 0.24s0.561 0.32 0.722 0.56l-0.401 0.4c-0.321-0.4-0.722-0.56-1.283-0.56-0.481 0-0.962 0.16-1.283 0.56-0.401 0.32-0.561 0.8-0.561 1.36s0.16 1.040 0.561 1.36c0.401 0.32 0.802 0.56 1.283 0.56 0.561 0 0.962-0.16 1.363-0.56 0.241-0.24 0.401-0.56 0.401-0.96h-1.764v-0.64h2.325v0.32zM41.698 6.163h-2.165v1.519h2.005v0.56h-2.005v1.52h2.165v0.64h-2.807v-4.798h2.807v0.56zM44.344 10.402h-0.642v-4.239h-1.363v-0.56h3.368v0.56h-1.363v4.239zM48.033 10.402v-4.798h0.642v4.798h-0.642zM51.401 10.402h-0.642v-4.239h-1.363v-0.56h3.288v0.56h-1.363v4.239h0.080zM59.019 9.762c-0.481 0.48-1.042 0.72-1.764 0.72s-1.283-0.24-1.764-0.72c-0.481-0.48-0.722-1.040-0.722-1.759s0.241-1.28 0.722-1.759 1.042-0.72 1.764-0.72c0.722 0 1.283 0.24 1.764 0.72s0.722 1.040 0.722 1.759c0 0.72-0.241 1.28-0.722 1.759zM55.972 9.362c0.321 0.32 0.802 0.56 1.283 0.56s0.962-0.16 1.283-0.56c0.321-0.32 0.561-0.8 0.561-1.36s-0.16-1.040-0.561-1.36c-0.321-0.32-0.802-0.56-1.283-0.56s-0.962 0.16-1.283 0.56c-0.321 0.32-0.561 0.8-0.561 1.36s0.16 1.040 0.561 1.36zM60.623 10.402v-4.798h0.722l2.325 3.759v-3.759h0.642v4.798h-0.642l-2.486-3.919v3.919h-0.561z"></path>
<path fill="#fff" style="fill: var(--color2, #fff)" d="M54.608 17.44c-1.925 0-3.448 1.44-3.448 3.439 0 1.919 1.524 3.439 3.448 3.439s3.448-1.44 3.448-3.439c0-2.079-1.524-3.439-3.448-3.439zM54.608 22.878c-1.042 0-1.925-0.88-1.925-2.079s0.882-2.079 1.925-2.079c1.043 0 1.925 0.8 1.925 2.079 0 1.2-0.882 2.079-1.925 2.079zM47.151 17.44c-1.925 0-3.448 1.44-3.448 3.439 0 1.919 1.524 3.439 3.448 3.439s3.448-1.44 3.448-3.439c0-2.079-1.524-3.439-3.448-3.439zM47.151 22.878c-1.042 0-1.925-0.88-1.925-2.079s0.882-2.079 1.925-2.079c1.042 0 1.925 0.8 1.925 2.079 0 1.2-0.882 2.079-1.925 2.079zM38.25 18.479v1.439h3.448c-0.080 0.8-0.401 1.44-0.802 1.839-0.481 0.48-1.283 1.040-2.646 1.040-2.165 0-3.769-1.679-3.769-3.839s1.684-3.839 3.769-3.839c1.123 0 2.005 0.48 2.646 1.040l1.042-1.040c-0.882-0.8-2.005-1.44-3.608-1.44-2.887 0-5.373 2.399-5.373 5.278s2.486 5.278 5.373 5.278c1.604 0 2.726-0.48 3.689-1.519 0.962-0.96 1.283-2.319 1.283-3.359 0-0.32 0-0.64-0.080-0.88h-4.972zM74.656 19.599c-0.321-0.8-1.123-2.159-2.887-2.159s-3.207 1.36-3.207 3.439c0 1.919 1.443 3.439 3.368 3.439 1.524 0 2.486-0.96 2.806-1.52l-1.122-0.8c-0.401 0.56-0.882 0.96-1.684 0.96s-1.283-0.32-1.684-1.040l4.571-1.919-0.16-0.4zM70.005 20.718c0-1.28 1.042-1.999 1.764-1.999 0.561 0 1.123 0.32 1.283 0.72l-3.047 1.28zM66.236 23.997h1.524v-9.996h-1.524v9.996zM63.83 18.159c-0.401-0.4-1.042-0.8-1.844-0.8-1.684 0-3.288 1.52-3.288 3.439s1.524 3.359 3.288 3.359c0.802 0 1.443-0.4 1.764-0.8h0.080v0.48c0 1.28-0.722 1.999-1.844 1.999-0.882 0-1.524-0.64-1.684-1.2l-1.283 0.56c0.401 0.88 1.363 1.999 3.047 1.999 1.764 0 3.208-1.040 3.208-3.519v-6.078h-1.443v0.56zM62.066 22.878c-1.042 0-1.925-0.88-1.925-2.079s0.882-2.079 1.925-2.079c1.042 0 1.844 0.88 1.844 2.079s-0.802 2.079-1.844 2.079zM81.632 14.001h-3.609v9.996h1.524v-3.759h2.085c1.684 0 3.288-1.2 3.288-3.119s-1.603-3.119-3.288-3.119zM81.712 18.799h-2.165v-3.439h2.165c1.123 0 1.764 0.96 1.764 1.679-0.080 0.88-0.722 1.759-1.764 1.759zM90.934 17.36c-1.123 0-2.245 0.48-2.646 1.52l1.363 0.56c0.321-0.56 0.802-0.72 1.363-0.72 0.802 0 1.524 0.48 1.604 1.28v0.080c-0.24-0.16-0.882-0.4-1.524-0.4-1.443 0-2.887 0.8-2.887 2.239 0 1.36 1.203 2.239 2.486 2.239 1.042 0 1.524-0.48 1.925-0.96h0.080v0.8h1.443v-3.839c-0.161-1.759-1.524-2.799-3.207-2.799zM90.774 22.878c-0.481 0-1.203-0.24-1.203-0.88 0-0.8 0.882-1.040 1.604-1.040 0.641 0 0.962 0.16 1.363 0.32-0.16 0.96-0.962 1.599-1.764 1.599zM99.194 17.6l-1.684 4.319h-0.080l-1.765-4.319h-1.603l2.646 6.078-1.524 3.359h1.524l4.089-9.437h-1.603zM85.722 23.997h1.524v-9.996h-1.524v9.996z"></path>
<path fill="#000" style="fill: var(--color4, #000)" d="M8.339 6.003c-0.241 0.24-0.321 0.64-0.321 1.12v17.674c0 0.48 0.16 0.88 0.401 1.12l0.080 0.080 9.943-9.917v-0.16l-10.104-9.916z"></path>
<path fill="#000" style="fill: var(--color4, #000)" d="M21.651 19.439l-3.288-3.279v-0.24l3.288-3.279 0.080 0.080 3.929 2.239c1.123 0.64 1.123 1.679 0 2.319l-4.009 2.159z"></path>
<path fill="#000" style="fill: var(--color4, #000)" d="M21.731 19.359l-3.368-3.359-10.024 9.997c0.401 0.4 0.962 0.4 1.684 0.080l11.708-6.718z"></path>
<path fill="#000" style="fill: var(--color4, #000)" d="M21.731 12.641l-11.708-6.638c-0.722-0.4-1.283-0.32-1.684 0.080l10.024 9.917 3.368-3.359z"></path>
<path fill="#000" style="fill: var(--color4, #000)" opacity="0.2" d="M21.651 19.279l-11.627 6.558c-0.642 0.4-1.203 0.32-1.604 0l-0.080 0.080 0.080 0.080c0.401 0.32 0.962 0.4 1.604 0l11.627-6.718z"></path>
<path fill="#000" style="fill: var(--color4, #000)" opacity="0.12" d="M8.339 25.837c-0.241-0.24-0.321-0.64-0.321-1.12v0.080c0 0.48 0.16 0.88 0.401 1.12v-0.080h-0.080zM25.66 17.040l-4.009 2.239 0.080 0.080 3.929-2.239c0.561-0.32 0.802-0.72 0.802-1.12 0 0.4-0.321 0.72-0.802 1.040z"></path>
<path fill="#fff" style="fill: var(--color2, #fff)" opacity="0.25" d="M10.023 6.083l15.637 8.877c0.481 0.32 0.802 0.64 0.802 1.040 0-0.4-0.241-0.8-0.802-1.12l-15.637-8.877c-1.123-0.64-2.005-0.16-2.005 1.12v0.080c0-1.2 0.882-1.759 2.005-1.12z"></path>
</symbol>
<symbol id="icon-it-proger" viewBox="0 0 32 32">
<path fill="#fff" style="fill: var(--color2, #fff)" d="M3.199 16c0-3.395 1.349-6.65 3.749-9.051s5.656-3.749 9.051-3.749c3.395 0 6.651 1.349 9.051 3.749s3.749 5.656 3.749 9.051c0 3.395-1.349 6.651-3.749 9.051s-5.656 3.749-9.051 3.749c-3.395 0-6.65-1.349-9.051-3.749s-3.749-5.656-3.749-9.051zM19.132 9.92c0.046-0.097 0.072-0.202 0.076-0.309s-0.013-0.214-0.050-0.314c-0.038-0.1-0.095-0.192-0.169-0.27s-0.162-0.14-0.26-0.183c-0.098-0.043-0.204-0.066-0.311-0.067s-0.213 0.019-0.313 0.060-0.189 0.101-0.264 0.177c-0.075 0.076-0.135 0.166-0.175 0.266l-5.6 12.8c-0.046 0.097-0.072 0.202-0.076 0.309s0.013 0.214 0.050 0.314 0.095 0.192 0.169 0.27c0.074 0.078 0.162 0.14 0.261 0.183s0.204 0.066 0.311 0.067c0.107 0.001 0.213-0.019 0.312-0.060s0.189-0.101 0.264-0.177c0.075-0.076 0.135-0.166 0.175-0.266l5.6-12.8zM10.966 12.234c-0.074-0.074-0.163-0.134-0.26-0.174s-0.201-0.061-0.307-0.061-0.209 0.021-0.307 0.061c-0.097 0.040-0.185 0.099-0.26 0.174l-3.2 3.2c-0.074 0.074-0.134 0.163-0.174 0.26s-0.061 0.201-0.061 0.307c0 0.105 0.021 0.209 0.061 0.307s0.099 0.186 0.174 0.26l3.2 3.2c0.15 0.15 0.354 0.235 0.566 0.235s0.416-0.084 0.566-0.235 0.235-0.354 0.235-0.566c0-0.212-0.084-0.416-0.235-0.566l-2.635-2.634 2.635-2.634c0.075-0.074 0.134-0.163 0.174-0.26s0.061-0.201 0.061-0.307-0.021-0.209-0.061-0.307c-0.040-0.097-0.099-0.185-0.174-0.26zM21.033 13.366l2.635 2.634-2.635 2.634c-0.15 0.15-0.235 0.354-0.235 0.566s0.084 0.416 0.235 0.566c0.15 0.15 0.354 0.235 0.566 0.235s0.416-0.084 0.566-0.235l3.2-3.2c0.075-0.074 0.134-0.163 0.174-0.26s0.061-0.201 0.061-0.307-0.021-0.209-0.061-0.307c-0.040-0.097-0.099-0.185-0.174-0.26l-3.2-3.2c-0.15-0.15-0.354-0.235-0.566-0.235s-0.416 0.084-0.566 0.235-0.235 0.354-0.235 0.566c0 0.212 0.084 0.416 0.235 0.566z"></path>
</symbol>
<symbol id="icon-linux" viewBox="0 0 30 32">
<path fill="#636d85" style="fill: var(--color1, #636d85)" d="M25.235 22.312c0.287 0.121 0.535 0.328 0.712 0.594 0.16 0.25 0.272 0.552 0.342 0.906 0.038 0.208 0.084 0.4 0.133 0.58 0.093 0.337 0.233 0.658 0.416 0.952 0.089 0.146 0.209 0.306 0.357 0.484 0.127 0.146 0.241 0.334 0.342 0.562 0.093 0.205 0.143 0.429 0.146 0.656 0.007 0.218-0.055 0.433-0.177 0.61-0.124 0.172-0.275 0.32-0.447 0.438-0.228 0.166-0.465 0.312-0.712 0.438-0.247 0.124-0.494 0.254-0.741 0.39-0.369 0.185-0.722 0.405-1.055 0.656-0.296 0.23-0.595 0.52-0.891 0.876-0.346 0.407-0.746 0.76-1.188 1.046-0.226 0.151-0.471 0.267-0.728 0.344-0.247 0.072-0.494 0.12-0.741 0.14-0.574 0-1.049-0.104-1.425-0.312s-0.703-0.588-0.98-1.14c-0.080-0.158-0.158-0.256-0.238-0.298-0.123-0.055-0.253-0.092-0.386-0.11l-1.503-0.124c-0.494-0.040-0.997-0.062-1.512-0.062-0.428 0-0.855 0.037-1.277 0.108-0.435 0.074-0.866 0.162-1.292 0.266-0.087 0.020-0.177 0.1-0.266 0.234-0.111 0.163-0.236 0.315-0.372 0.454-0.185 0.186-0.401 0.334-0.636 0.438-0.336 0.138-0.694 0.207-1.054 0.202-0.327 0-0.678-0.036-1.055-0.108-0.352-0.064-0.692-0.186-1.009-0.36-0.571-0.308-1.181-0.528-1.811-0.656-0.595-0.114-1.222-0.22-1.885-0.312-0.22-0.030-0.438-0.072-0.654-0.126-0.199-0.047-0.387-0.138-0.551-0.266-0.151-0.117-0.276-0.266-0.369-0.438-0.101-0.218-0.153-0.459-0.15-0.702 0-0.324 0.040-0.636 0.12-0.938 0.080-0.3 0.123-0.62 0.133-0.952 0-0.23-0.015-0.454-0.044-0.672-0.031-0.234-0.052-0.468-0.061-0.704 0-0.53 0.12-0.92 0.357-1.172 0.237-0.25 0.583-0.448 1.039-0.594 0.203-0.064 0.393-0.165 0.564-0.296 0.157-0.124 0.305-0.26 0.445-0.406 0.141-0.15 0.27-0.312 0.386-0.484 0.12-0.178 0.253-0.356 0.401-0.532 0.030-0.040 0.046-0.089 0.046-0.14 0-0.126-0.006-0.246-0.015-0.36l-0.030-0.376c0-0.708 0.104-1.42 0.312-2.14 0.209-0.72 0.481-1.42 0.817-2.11 0.336-0.686 0.713-1.349 1.129-1.984 0.414-0.634 0.826-1.224 1.231-1.766 0.55-0.724 0.986-1.537 1.292-2.406 0.285-0.832 0.435-1.74 0.445-2.72 0-0.414-0.019-0.826-0.059-1.232-0.040-0.415-0.060-0.833-0.059-1.25 0-0.834 0.089-1.584 0.266-2.25 0.179-0.668 0.456-1.24 0.832-1.72s0.866-0.838 1.469-1.078c0.606-0.24 1.328-0.37 2.168-0.39 1.001 0 1.797 0.208 2.392 0.626 0.593 0.416 1.049 0.962 1.364 1.64 0.317 0.676 0.521 1.432 0.608 2.266 0.091 0.832 0.141 1.676 0.15 2.53v0.266c0 0.428 0.004 0.808 0.015 1.14 0.018 0.675 0.164 1.339 0.429 1.954 0.139 0.322 0.346 0.672 0.623 1.046 0.475 0.658 0.961 1.32 1.455 1.986s0.944 1.354 1.349 2.060c0.407 0.71 0.739 1.45 0.996 2.22 0.258 0.772 0.391 1.604 0.401 2.5 0.002 0.707-0.103 1.409-0.312 2.080v-0.002zM12.782 6.032c0.137 0 0.251 0.036 0.342 0.108 0.093 0.079 0.164 0.181 0.207 0.298 0.048 0.12 0.082 0.246 0.103 0.374 0.019 0.126 0.030 0.256 0.030 0.392 0.003 0.086-0.012 0.171-0.046 0.25-0.033 0.066-0.078 0.125-0.133 0.172l-0.179 0.156c-0.064 0.057-0.123 0.119-0.177 0.186-0.071 0.117-0.168 0.214-0.283 0.282-0.118 0.072-0.232 0.15-0.342 0.234-0.105 0.080-0.204 0.169-0.296 0.266-0.046 0.052-0.082 0.114-0.104 0.181s-0.033 0.138-0.029 0.209c0 0.094 0.044 0.172 0.133 0.234 0.222 0.147 0.397 0.359 0.505 0.61 0.099 0.24 0.209 0.474 0.327 0.704 0.118 0.228 0.272 0.42 0.46 0.578 0.188 0.156 0.481 0.234 0.874 0.234h0.091c0.395-0.020 0.771-0.13 1.129-0.328 0.355-0.198 0.713-0.406 1.068-0.626 0.062-0.037 0.127-0.067 0.194-0.092 0.069-0.026 0.134-0.063 0.192-0.11l1.083-0.89c0.019-0.067 0.034-0.135 0.046-0.204 0.012-0.073 0.022-0.146 0.030-0.22 0.003-0.099-0.023-0.197-0.076-0.28-0.049-0.073-0.108-0.136-0.177-0.188-0.076-0.055-0.162-0.091-0.253-0.108-0.091-0.019-0.18-0.046-0.266-0.080-0.237-0.051-0.463-0.146-0.669-0.28-0.204-0.133-0.424-0.238-0.654-0.312-0.038-0.012-0.068-0.042-0.089-0.094-0.023-0.062-0.042-0.124-0.059-0.188-0.020-0.066-0.025-0.136-0.015-0.204 0.011-0.052 0.005-0.107-0.015-0.156 0-0.124 0.009-0.254 0.030-0.39 0.021-0.138 0.066-0.27 0.133-0.39 0.058-0.111 0.139-0.207 0.238-0.28 0.117-0.072 0.25-0.111 0.386-0.112 0.308 0 0.53 0.12 0.669 0.36s0.213 0.5 0.222 0.78c0.002 0.124-0.023 0.248-0.074 0.36-0.051 0.107-0.077 0.225-0.076 0.344 0 0.084 0.027 0.14 0.076 0.172 0.060 0.035 0.126 0.056 0.194 0.062 0.228 0 0.374-0.056 0.445-0.17 0.080-0.159 0.12-0.336 0.118-0.516 0-0.24-0.019-0.506-0.057-0.798-0.038-0.282-0.119-0.557-0.24-0.812-0.111-0.24-0.267-0.453-0.46-0.626-0.206-0.172-0.465-0.261-0.728-0.248-0.513 0-0.885 0.134-1.113 0.406-0.228 0.27-0.346 0.676-0.355 1.218 0 0.156 0.009 0.312 0.028 0.468 0.019 0.158 0.030 0.314 0.030 0.47 0 0.052-0.006 0.078-0.015 0.078-0.031-0.007-0.061-0.018-0.089-0.032-0.059-0.025-0.118-0.051-0.177-0.078-0.073-0.032-0.148-0.058-0.224-0.078-0.126-0.032-0.257-0.038-0.386-0.016-0.079 0.011-0.158 0.016-0.238 0.016-0.139 0-0.209-0.026-0.209-0.078 0-0.156-0.008-0.354-0.028-0.594-0.019-0.24-0.068-0.48-0.148-0.72-0.066-0.214-0.167-0.414-0.296-0.592-0.12-0.156-0.296-0.24-0.534-0.25-0.16-0.004-0.314 0.058-0.431 0.172-0.122 0.119-0.227 0.256-0.312 0.406-0.091 0.162-0.147 0.344-0.163 0.532-0.016 0.167-0.036 0.334-0.059 0.5 0.008 0.276 0.052 0.549 0.133 0.812 0.049 0.166 0.104 0.312 0.163 0.438 0.059 0.124 0.129 0.186 0.209 0.186 0.047 0 0.114-0.036 0.192-0.108 0.080-0.074 0.12-0.14 0.12-0.204 0-0.032-0.015-0.052-0.046-0.062-0.029-0.010-0.059-0.016-0.089-0.016-0.068 0-0.129-0.036-0.179-0.11-0.051-0.077-0.091-0.161-0.118-0.25-0.031-0.098-0.061-0.197-0.089-0.296-0.059-0.27-0.022-0.553 0.104-0.796 0.089-0.168 0.253-0.256 0.49-0.266zM9.545 30.36c0.238 0 0.471-0.020 0.699-0.064 0.226-0.041 0.442-0.126 0.638-0.25 0.188-0.115 0.342-0.282 0.445-0.484 0.108-0.234 0.169-0.49 0.179-0.75 0-0.186-0.030-0.371-0.089-0.546-0.060-0.179-0.146-0.347-0.253-0.5-0.117-0.196-0.246-0.383-0.386-0.562s-0.268-0.368-0.386-0.564c-0.185-0.286-0.368-0.572-0.551-0.86-0.177-0.28-0.355-0.576-0.532-0.89-0.156-0.266-0.305-0.537-0.447-0.812-0.145-0.281-0.314-0.547-0.505-0.796-0.121-0.158-0.26-0.3-0.414-0.422-0.159-0.125-0.353-0.192-0.551-0.188-0.207-0.003-0.408 0.075-0.562 0.22-0.177 0.162-0.341 0.34-0.49 0.53-0.175 0.216-0.364 0.42-0.564 0.61-0.209 0.198-0.475 0.354-0.802 0.468-0.221 0.062-0.425 0.18-0.593 0.344-0.139 0.146-0.209 0.37-0.209 0.672 0 0.208 0.015 0.416 0.046 0.624 0.029 0.208 0.049 0.418 0.059 0.626 0 0.28-0.038 0.546-0.12 0.796-0.077 0.236-0.116 0.484-0.118 0.734 0 0.282 0.095 0.48 0.281 0.594 0.19 0.116 0.401 0.194 0.638 0.234 0.298 0.054 0.58 0.094 0.847 0.126 0.266 0.032 0.528 0.080 0.787 0.14 0.256 0.064 0.513 0.13 0.771 0.204 0.256 0.072 0.53 0.188 0.817 0.344 0.057 0.030 0.148 0.068 0.266 0.108l0.401 0.14c0.148 0.054 0.287 0.096 0.416 0.126 0.092 0.026 0.186 0.042 0.281 0.048zM14.979 28.484c0.277 0 0.574-0.030 0.891-0.094 0.646-0.127 1.271-0.354 1.854-0.672 0.272-0.146 0.53-0.318 0.771-0.514 0.024-0.028 0.044-0.060 0.061-0.094 0.019-0.040 0.034-0.083 0.044-0.126v-0.016c0.059-0.228 0.108-0.48 0.148-0.75 0.041-0.275 0.076-0.551 0.104-0.828s0.064-0.553 0.104-0.828c0.038-0.27 0.074-0.536 0.103-0.796 0.040-0.28 0.089-0.552 0.148-0.812 0.061-0.26 0.139-0.506 0.237-0.736 0.098-0.227 0.233-0.432 0.401-0.608 0.195-0.198 0.415-0.366 0.654-0.5v-0.032l-0.015-0.046c0.003-0.106 0.034-0.209 0.089-0.298 0.066-0.115 0.141-0.224 0.222-0.328 0.079-0.105 0.175-0.195 0.283-0.266 0.099-0.062 0.203-0.115 0.312-0.156-0.060-0.251-0.124-0.501-0.194-0.75-0.069-0.247-0.128-0.498-0.179-0.75-0.048-0.319-0.108-0.637-0.177-0.952-0.055-0.244-0.125-0.485-0.209-0.72-0.085-0.229-0.2-0.444-0.342-0.64-0.146-0.208-0.331-0.46-0.547-0.75-0.083-0.097-0.158-0.202-0.224-0.312-0.052-0.124-0.081-0.257-0.087-0.392-0.024-0.137-0.053-0.272-0.089-0.406-0.133-0.506-0.287-1.007-0.46-1.5-0.091-0.263-0.2-0.519-0.327-0.766-0.101-0.198-0.21-0.39-0.327-0.578-0.099-0.156-0.203-0.234-0.312-0.234-0.237 0-0.52 0.1-0.847 0.298-0.325 0.198-0.673 0.416-1.037 0.656-0.367 0.24-0.722 0.464-1.070 0.672-0.346 0.208-0.657 0.306-0.935 0.296-0.296-0-0.584-0.104-0.817-0.296-0.252-0.202-0.481-0.433-0.684-0.688-0.207-0.26-0.38-0.484-0.519-0.672s-0.241-0.292-0.312-0.312c-0.078 0-0.123 0.062-0.133 0.186-0.011 0.14-0.016 0.281-0.015 0.422v0.266c0 0.064-0.009 0.104-0.030 0.126-0.108 0.24-0.228 0.474-0.355 0.702-0.129 0.23-0.257 0.464-0.386 0.704-0.256 0.461-0.399 0.982-0.416 1.516 0 0.156 0.009 0.312 0.030 0.468 0.019 0.156 0.068 0.308 0.148 0.454l-0.030 0.060c-0.076 0.112-0.161 0.216-0.253 0.314-0.094 0.1-0.178 0.21-0.251 0.328-0.363 0.565-0.626 1.196-0.773 1.86-0.148 0.666-0.228 1.344-0.238 2.030 0 0.178 0.011 0.356 0.030 0.532 0.019 0.178 0.030 0.354 0.030 0.532-0.001 0.058-0.006 0.115-0.015 0.172s-0.015 0.114-0.015 0.172c0.211 0.025 0.414 0.1 0.595 0.218 0.228 0.136 0.475 0.308 0.741 0.516s0.521 0.448 0.758 0.72c0.238 0.27 0.464 0.534 0.682 0.796 0.219 0.26 0.376 0.52 0.475 0.78s0.163 0.474 0.192 0.64c0.005 0.121-0.013 0.242-0.054 0.355s-0.103 0.216-0.183 0.303c-0.17 0.175-0.372 0.313-0.593 0.406 0.169 0.312 0.376 0.578 0.623 0.796 0.247 0.22 0.515 0.396 0.802 0.532s0.598 0.234 0.935 0.296c0.336 0.064 0.665 0.094 0.98 0.094zM20.932 30.704c0.207 0 0.41-0.032 0.608-0.094 0.3-0.090 0.584-0.227 0.846-0.406 0.258-0.178 0.494-0.396 0.712-0.658 0.516-0.627 1.148-1.137 1.856-1.5l0.49-0.234c0.168-0.077 0.331-0.166 0.488-0.266 0.113-0.076 0.219-0.164 0.314-0.264 0.048-0.049 0.086-0.107 0.111-0.172s0.038-0.134 0.037-0.204c0-0.080-0.016-0.16-0.046-0.234-0.036-0.083-0.080-0.162-0.133-0.234-0.136-0.199-0.264-0.402-0.386-0.61-0.11-0.189-0.205-0.388-0.283-0.594l-0.238-0.624c-0.086-0.229-0.156-0.464-0.209-0.704-0.021-0.074-0.056-0.143-0.103-0.202-0.096-0.15-0.226-0.272-0.379-0.355s-0.323-0.122-0.495-0.115c-0.177-0.001-0.352 0.048-0.505 0.14l-0.505 0.298c-0.176 0.103-0.354 0.201-0.534 0.296-0.175 0.093-0.368 0.141-0.564 0.14-0.175 0.008-0.348-0.046-0.49-0.154-0.137-0.114-0.248-0.258-0.327-0.422-0.084-0.167-0.159-0.339-0.222-0.516l-0.179-0.516c-0.077 0.134-0.166 0.26-0.266 0.376-0.102 0.119-0.182 0.257-0.238 0.406-0.129 0.312-0.209 0.66-0.237 1.046-0.049 0.604-0.114 1.192-0.194 1.766-0.081 0.585-0.215 1.161-0.399 1.72-0.052 0.179-0.093 0.361-0.12 0.546-0.030 0.192-0.050 0.384-0.061 0.578 0 0.51 0.15 0.932 0.446 1.266 0.296 0.332 0.697 0.5 1.203 0.5z"></path>
</symbol>
<symbol id="icon-windows" viewBox="0 0 32 32">
<path fill="#636d85" style="fill: var(--color1, #636d85)" d="M4 7.409l9.809-1.336 0.005 9.463-9.805 0.056-0.009-8.183zM13.805 16.627l0.008 9.471-9.805-1.348v-8.187l9.797 0.064zM14.995 5.899l13.007-1.899v11.416l-13.007 0.103v-9.62zM28.005 16.716l-0.004 11.364-13.007-1.837-0.019-9.548 13.029 0.021z"></path>
</symbol>
<symbol id="icon-Ellipse-black" viewBox="0 0 32 32">
<path d="M32 16c0 8.837-7.163 16-16 16s-16-7.163-16-16c0-8.837 7.163-16 16-16s16 7.163 16 16z"></path>
<path stroke-linejoin="miter" stroke-linecap="butt" stroke-miterlimit="4" stroke-width="0.5333" d="M31.733 16c0 8.689-7.044 15.733-15.733 15.733s-15.733-7.044-15.733-15.733c0-8.689 7.044-15.733 15.733-15.733s15.733 7.044 15.733 15.733z"></path>
</symbol>
<symbol id="icon-right" viewBox="0 0 32 32">
<path fill="#fff" style="fill: var(--color1, #fff)" d="M16.944 7.512c-0.25 0.25-0.391 0.589-0.391 0.943s0.141 0.693 0.391 0.943l5.27 5.27-15.641-0.009c-0.355 0-0.696 0.141-0.947 0.392s-0.392 0.592-0.392 0.947c0 0.355 0.141 0.696 0.392 0.947s0.592 0.392 0.947 0.392l15.641-0.009-5.27 5.27c-0.25 0.25-0.391 0.589-0.391 0.943s0.141 0.693 0.391 0.943c0.25 0.25 0.589 0.391 0.943 0.391s0.693-0.141 0.943-0.391l7.542-7.543c0.25-0.25 0.391-0.589 0.391-0.943s-0.141-0.693-0.391-0.943l-7.542-7.542c-0.25-0.25-0.589-0.391-0.943-0.391s-0.693 0.14-0.943 0.391z"></path>
</symbol>
<symbol id="icon-left" viewBox="0 0 32 32">
<path fill="#fff" style="fill: var(--color1, #fff)" opacity="0.5" d="M15.056 24.488c0.25-0.25 0.391-0.589 0.391-0.943s-0.141-0.693-0.391-0.943l-5.27-5.27 15.641 0.009c0.355 0 0.696-0.141 0.947-0.392s0.392-0.592 0.392-0.947c0-0.355-0.141-0.696-0.392-0.947s-0.592-0.392-0.947-0.392l-15.641 0.009 5.27-5.27c0.25-0.25 0.391-0.589 0.391-0.943s-0.141-0.693-0.391-0.943c-0.25-0.25-0.589-0.391-0.943-0.391s-0.693 0.14-0.943 0.391l-7.542 7.543c-0.25 0.25-0.391 0.589-0.391 0.943s0.14 0.693 0.391 0.943l7.542 7.542c0.25 0.25 0.589 0.391 0.943 0.391s0.693-0.14 0.943-0.391z"></path>
</symbol>
<symbol id="icon-windows" viewBox="0 0 33 32">
<path fill="#636d85" style="fill: var(--color1, #636d85)" d="M4.329 7.409l9.809-1.336 0.005 9.463-9.805 0.056-0.009-8.183zM14.135 16.627l0.008 9.471-9.805-1.348v-8.187l9.797 0.064zM15.324 5.899l13.007-1.899v11.416l-13.007 0.103v-9.62zM28.335 16.716l-0.004 11.364-13.007-1.837-0.019-9.548 13.029 0.021z"></path>
</symbol>
<symbol id="icon-linux" viewBox="0 0 33 32">
<path fill="#636d85" style="fill: var(--color1, #636d85)" d="M26.912 22.312c0.302 0.121 0.563 0.328 0.75 0.594 0.168 0.25 0.286 0.552 0.36 0.906 0.040 0.208 0.088 0.4 0.14 0.58 0.098 0.337 0.246 0.658 0.438 0.952 0.094 0.146 0.22 0.306 0.376 0.484 0.134 0.146 0.254 0.334 0.36 0.562 0.098 0.205 0.15 0.429 0.154 0.656 0.008 0.218-0.058 0.433-0.186 0.61-0.131 0.172-0.289 0.32-0.47 0.438-0.24 0.166-0.49 0.312-0.75 0.438-0.26 0.124-0.52 0.254-0.78 0.39-0.389 0.185-0.76 0.405-1.11 0.656-0.312 0.23-0.626 0.52-0.938 0.876-0.364 0.407-0.785 0.76-1.25 1.046-0.238 0.151-0.495 0.267-0.766 0.344-0.26 0.072-0.52 0.12-0.78 0.14-0.604 0-1.104-0.104-1.5-0.312s-0.74-0.588-1.032-1.14c-0.084-0.158-0.166-0.256-0.25-0.298-0.13-0.055-0.266-0.092-0.406-0.11l-1.582-0.124c-0.52-0.040-1.050-0.062-1.592-0.062-0.45 0.001-0.899 0.037-1.344 0.108-0.458 0.074-0.912 0.162-1.36 0.266-0.092 0.020-0.186 0.1-0.28 0.234-0.117 0.163-0.248 0.314-0.392 0.454-0.195 0.186-0.422 0.334-0.67 0.438-0.354 0.138-0.73 0.207-1.11 0.202-0.344 0-0.714-0.036-1.11-0.108-0.37-0.064-0.729-0.186-1.062-0.36-0.601-0.308-1.243-0.528-1.906-0.656-0.626-0.114-1.286-0.22-1.984-0.312-0.231-0.030-0.461-0.072-0.688-0.126-0.21-0.047-0.407-0.138-0.58-0.266-0.159-0.117-0.291-0.267-0.388-0.438-0.107-0.218-0.161-0.459-0.158-0.702 0-0.324 0.042-0.636 0.126-0.938 0.084-0.3 0.13-0.62 0.14-0.952 0-0.23-0.016-0.454-0.046-0.672-0.033-0.233-0.054-0.468-0.064-0.704 0-0.53 0.126-0.92 0.376-1.172 0.25-0.25 0.614-0.448 1.094-0.594 0.213-0.064 0.414-0.165 0.594-0.296 0.165-0.125 0.321-0.26 0.468-0.406 0.149-0.149 0.285-0.311 0.406-0.484 0.126-0.178 0.266-0.356 0.422-0.532 0.031-0.040 0.048-0.089 0.048-0.14 0-0.126-0.006-0.246-0.016-0.36l-0.032-0.376c0-0.708 0.11-1.42 0.328-2.14 0.22-0.72 0.506-1.42 0.86-2.11 0.353-0.686 0.75-1.349 1.188-1.984 0.436-0.634 0.87-1.224 1.296-1.766 0.579-0.724 1.038-1.537 1.36-2.406 0.3-0.832 0.458-1.74 0.468-2.72 0-0.414-0.020-0.826-0.062-1.232-0.042-0.415-0.063-0.833-0.062-1.25 0-0.834 0.094-1.584 0.28-2.25 0.188-0.668 0.48-1.24 0.876-1.72s0.912-0.838 1.546-1.078c0.638-0.24 1.398-0.37 2.282-0.39 1.054 0 1.892 0.208 2.518 0.626 0.624 0.416 1.104 0.962 1.436 1.64 0.334 0.676 0.548 1.432 0.64 2.266 0.096 0.832 0.148 1.676 0.158 2.53v0.266c0 0.428 0.004 0.808 0.016 1.14 0.019 0.675 0.172 1.339 0.452 1.954 0.146 0.322 0.364 0.672 0.656 1.046 0.5 0.658 1.012 1.32 1.532 1.986s0.994 1.354 1.42 2.060c0.428 0.71 0.778 1.45 1.048 2.22 0.272 0.772 0.412 1.604 0.422 2.5 0.003 0.706-0.108 1.409-0.328 2.080v-0.002zM13.804 6.032c0.144 0 0.264 0.036 0.36 0.108 0.098 0.079 0.173 0.181 0.218 0.298 0.050 0.12 0.086 0.246 0.108 0.374 0.020 0.126 0.032 0.256 0.032 0.392 0.003 0.086-0.013 0.171-0.048 0.25-0.034 0.066-0.082 0.125-0.14 0.172l-0.188 0.156c-0.067 0.057-0.129 0.119-0.186 0.186-0.075 0.117-0.177 0.214-0.298 0.282-0.124 0.072-0.244 0.15-0.36 0.234-0.111 0.080-0.215 0.169-0.312 0.266-0.048 0.052-0.086 0.114-0.11 0.181s-0.034 0.138-0.030 0.209c0 0.094 0.046 0.172 0.14 0.234 0.233 0.147 0.418 0.359 0.532 0.61 0.104 0.24 0.22 0.474 0.344 0.704 0.124 0.228 0.286 0.42 0.484 0.578 0.198 0.156 0.506 0.234 0.92 0.234h0.096c0.416-0.020 0.812-0.13 1.188-0.328 0.374-0.198 0.75-0.406 1.124-0.626 0.065-0.037 0.133-0.067 0.204-0.092 0.073-0.026 0.141-0.063 0.202-0.11l1.14-0.89c0.020-0.067 0.036-0.135 0.048-0.204 0.012-0.073 0.023-0.146 0.032-0.22 0.003-0.099-0.024-0.197-0.080-0.28-0.051-0.073-0.114-0.136-0.186-0.188-0.080-0.055-0.171-0.091-0.266-0.108-0.095-0.019-0.189-0.046-0.28-0.080-0.249-0.051-0.488-0.146-0.704-0.28-0.215-0.133-0.446-0.238-0.688-0.312-0.040-0.012-0.072-0.042-0.094-0.094-0.024-0.062-0.044-0.124-0.062-0.188-0.021-0.066-0.026-0.136-0.016-0.204 0.011-0.052 0.006-0.107-0.016-0.156 0-0.124 0.010-0.254 0.032-0.39 0.022-0.138 0.069-0.27 0.14-0.39 0.061-0.111 0.146-0.207 0.25-0.28 0.123-0.072 0.263-0.111 0.406-0.112 0.324 0 0.558 0.12 0.704 0.36s0.224 0.5 0.234 0.78c0.003 0.124-0.024 0.248-0.078 0.36-0.053 0.107-0.081 0.225-0.080 0.344 0 0.084 0.028 0.14 0.080 0.172 0.063 0.035 0.133 0.056 0.204 0.062 0.24 0 0.394-0.056 0.468-0.17 0.084-0.159 0.127-0.336 0.124-0.516 0-0.24-0.020-0.506-0.060-0.798-0.040-0.282-0.125-0.557-0.252-0.812-0.116-0.24-0.281-0.453-0.484-0.626-0.217-0.172-0.489-0.261-0.766-0.248-0.54 0-0.932 0.134-1.172 0.406-0.24 0.27-0.364 0.676-0.374 1.218 0 0.156 0.010 0.312 0.030 0.468 0.020 0.158 0.032 0.314 0.032 0.47 0 0.052-0.006 0.078-0.016 0.078-0.032-0.007-0.064-0.018-0.094-0.032-0.062-0.025-0.124-0.051-0.186-0.078-0.076-0.032-0.155-0.058-0.236-0.078-0.133-0.032-0.271-0.038-0.406-0.016-0.083 0.011-0.166 0.016-0.25 0.016-0.146 0-0.22-0.026-0.22-0.078 0-0.156-0.008-0.354-0.030-0.594-0.020-0.24-0.072-0.48-0.156-0.72-0.070-0.214-0.175-0.414-0.312-0.592-0.126-0.156-0.312-0.24-0.562-0.25-0.168-0.004-0.331 0.058-0.454 0.172-0.128 0.119-0.239 0.256-0.328 0.406-0.096 0.162-0.155 0.344-0.172 0.532-0.017 0.167-0.037 0.334-0.062 0.5 0.008 0.276 0.055 0.549 0.14 0.812 0.052 0.166 0.11 0.312 0.172 0.438 0.062 0.124 0.136 0.186 0.22 0.186 0.050 0 0.12-0.036 0.202-0.108 0.084-0.074 0.126-0.14 0.126-0.204 0-0.032-0.016-0.052-0.048-0.062-0.030-0.010-0.062-0.016-0.094-0.016-0.072 0-0.136-0.036-0.188-0.11-0.054-0.077-0.095-0.161-0.124-0.25-0.033-0.098-0.064-0.197-0.094-0.296-0.062-0.27-0.023-0.553 0.11-0.796 0.094-0.168 0.266-0.256 0.516-0.266zM10.396 30.36c0.25 0 0.496-0.020 0.736-0.064 0.238-0.041 0.466-0.126 0.672-0.25 0.198-0.115 0.36-0.282 0.468-0.484 0.114-0.234 0.178-0.49 0.188-0.75 0-0.186-0.032-0.371-0.094-0.546-0.063-0.179-0.153-0.347-0.266-0.5-0.123-0.196-0.259-0.383-0.406-0.562s-0.283-0.368-0.406-0.564c-0.194-0.286-0.388-0.573-0.58-0.86-0.186-0.28-0.374-0.576-0.56-0.89-0.164-0.266-0.321-0.537-0.47-0.812-0.153-0.281-0.331-0.547-0.532-0.796-0.127-0.159-0.273-0.3-0.436-0.422-0.167-0.125-0.371-0.192-0.58-0.188-0.218-0.003-0.429 0.075-0.592 0.22-0.186 0.162-0.359 0.34-0.516 0.53-0.184 0.216-0.383 0.42-0.594 0.61-0.22 0.198-0.5 0.354-0.844 0.468-0.233 0.062-0.447 0.18-0.624 0.344-0.146 0.146-0.22 0.37-0.22 0.672 0 0.208 0.016 0.416 0.048 0.624 0.030 0.208 0.052 0.418 0.062 0.626 0 0.28-0.040 0.546-0.126 0.796-0.081 0.236-0.123 0.484-0.124 0.734 0 0.282 0.1 0.48 0.296 0.594 0.2 0.116 0.422 0.194 0.672 0.234 0.314 0.054 0.61 0.094 0.892 0.126 0.28 0.032 0.556 0.080 0.828 0.14 0.27 0.064 0.54 0.13 0.812 0.204 0.27 0.072 0.558 0.188 0.86 0.344 0.060 0.030 0.156 0.068 0.28 0.108l0.422 0.14c0.156 0.054 0.302 0.096 0.438 0.126 0.097 0.026 0.196 0.042 0.296 0.048zM16.116 28.484c0.292 0 0.604-0.030 0.938-0.094 0.68-0.127 1.338-0.354 1.952-0.672 0.286-0.146 0.558-0.318 0.812-0.514 0.025-0.029 0.047-0.060 0.064-0.094 0.020-0.040 0.035-0.082 0.046-0.126v-0.016c0.062-0.228 0.114-0.48 0.156-0.75 0.043-0.275 0.080-0.551 0.11-0.828s0.067-0.553 0.11-0.828c0.040-0.27 0.078-0.536 0.108-0.796 0.042-0.28 0.094-0.552 0.156-0.812 0.064-0.26 0.146-0.506 0.25-0.736 0.103-0.227 0.246-0.433 0.422-0.608 0.205-0.198 0.437-0.366 0.688-0.5v-0.032l-0.016-0.046c0.003-0.106 0.036-0.209 0.094-0.298 0.070-0.115 0.148-0.224 0.234-0.328 0.083-0.105 0.184-0.195 0.298-0.266 0.104-0.062 0.214-0.115 0.328-0.156-0.063-0.251-0.131-0.501-0.204-0.75-0.072-0.247-0.135-0.498-0.188-0.75-0.051-0.319-0.113-0.637-0.186-0.952-0.058-0.244-0.131-0.485-0.22-0.72-0.090-0.229-0.211-0.445-0.36-0.64-0.154-0.208-0.348-0.46-0.576-0.75-0.087-0.097-0.166-0.202-0.236-0.312-0.054-0.124-0.085-0.257-0.092-0.392-0.025-0.137-0.056-0.272-0.094-0.406-0.14-0.506-0.302-1.007-0.484-1.5-0.096-0.263-0.211-0.519-0.344-0.766-0.106-0.198-0.221-0.39-0.344-0.578-0.104-0.156-0.214-0.234-0.328-0.234-0.25 0-0.548 0.1-0.892 0.298-0.342 0.198-0.708 0.416-1.092 0.656-0.386 0.24-0.76 0.464-1.126 0.672-0.364 0.208-0.692 0.306-0.984 0.296-0.312-0-0.614-0.104-0.86-0.296-0.265-0.202-0.506-0.433-0.72-0.688-0.218-0.26-0.4-0.484-0.546-0.672s-0.254-0.292-0.328-0.312c-0.082 0-0.13 0.062-0.14 0.186-0.011 0.14-0.016 0.281-0.016 0.422v0.266c0 0.064-0.010 0.104-0.032 0.126-0.114 0.24-0.24 0.474-0.374 0.702-0.136 0.23-0.27 0.464-0.406 0.704-0.269 0.461-0.42 0.982-0.438 1.516 0 0.156 0.010 0.312 0.032 0.468 0.020 0.156 0.072 0.308 0.156 0.454l-0.032 0.060c-0.080 0.111-0.169 0.216-0.266 0.314-0.098 0.1-0.187 0.21-0.264 0.328-0.383 0.565-0.658 1.195-0.814 1.86-0.156 0.666-0.24 1.344-0.25 2.030 0 0.178 0.012 0.356 0.032 0.532 0.020 0.178 0.032 0.354 0.032 0.532-0.001 0.058-0.006 0.115-0.016 0.172s-0.015 0.114-0.016 0.172c0.222 0.025 0.436 0.1 0.626 0.218 0.24 0.136 0.5 0.308 0.78 0.516s0.548 0.448 0.798 0.72c0.25 0.27 0.488 0.534 0.718 0.796 0.23 0.26 0.396 0.52 0.5 0.78s0.172 0.474 0.202 0.64c0.005 0.121-0.014 0.242-0.057 0.355s-0.109 0.216-0.193 0.303c-0.179 0.175-0.391 0.313-0.624 0.406 0.178 0.312 0.396 0.578 0.656 0.796 0.26 0.22 0.542 0.396 0.844 0.532s0.63 0.234 0.984 0.296c0.354 0.064 0.7 0.094 1.032 0.094zM22.382 30.704c0.218 0 0.432-0.032 0.64-0.094 0.315-0.090 0.615-0.227 0.89-0.406 0.272-0.178 0.52-0.396 0.75-0.658 0.543-0.627 1.208-1.137 1.954-1.5l0.516-0.234c0.177-0.077 0.349-0.166 0.514-0.266 0.119-0.076 0.23-0.164 0.33-0.264 0.050-0.049 0.090-0.107 0.117-0.172s0.040-0.134 0.039-0.204c0-0.081-0.016-0.16-0.048-0.234-0.037-0.083-0.084-0.162-0.14-0.234-0.142-0.198-0.278-0.402-0.406-0.61-0.116-0.189-0.215-0.388-0.298-0.594l-0.25-0.624c-0.090-0.229-0.164-0.464-0.22-0.704-0.022-0.074-0.058-0.143-0.108-0.202-0.101-0.15-0.238-0.272-0.399-0.355s-0.34-0.122-0.521-0.115c-0.186-0.001-0.37 0.048-0.532 0.14l-0.532 0.298c-0.185 0.103-0.372 0.201-0.562 0.296-0.184 0.093-0.388 0.141-0.594 0.14-0.184 0.008-0.366-0.046-0.516-0.154-0.144-0.114-0.261-0.258-0.344-0.422-0.089-0.167-0.167-0.339-0.234-0.516l-0.188-0.516c-0.081 0.134-0.175 0.26-0.28 0.376-0.107 0.119-0.192 0.257-0.25 0.406-0.136 0.312-0.22 0.66-0.25 1.046-0.052 0.604-0.12 1.192-0.204 1.766-0.085 0.585-0.226 1.161-0.42 1.72-0.055 0.179-0.097 0.361-0.126 0.546-0.031 0.192-0.052 0.384-0.064 0.578 0 0.51 0.158 0.932 0.47 1.266 0.312 0.332 0.734 0.5 1.266 0.5z"></path>
</symbol>
<symbol id="icon-apple" viewBox="0 0 27 32">
<path fill="#636d85" style="fill: var(--color1, #636d85)" d="M18.16 5.128c-1.117 1.343-2.904 2.403-4.69 2.252-0.223-1.817 0.651-3.747 1.675-4.939 1.117-1.381 3.071-2.365 4.653-2.441 0.186 1.892-0.54 3.747-1.638 5.128zM19.78 7.739c-2.587-0.151-4.802 1.495-6.030 1.495-1.247 0-3.127-1.419-5.174-1.381-2.662 0.038-5.137 1.571-6.496 4.012-2.792 4.882-0.726 12.11 1.973 16.084 1.322 1.968 2.904 4.125 4.988 4.050 1.973-0.076 2.755-1.306 5.137-1.306 2.401 0 3.090 1.306 5.174 1.268 2.159-0.038 3.518-1.968 4.839-3.936 1.508-2.233 2.122-4.409 2.159-4.523-0.037-0.038-4.169-1.646-4.206-6.49-0.037-4.049 3.257-5.979 3.406-6.093-1.861-2.801-4.765-3.103-5.77-3.179z"></path>
</symbol>
<symbol id="icon-android" viewBox="0 0 28 32">
<path fill="#fff" style="fill: var(--color2, #fff)" opacity="0.42" d="M5.6 12.781v7.238c0 0.962-0.756 1.731-1.719 1.731-0.956 0-1.881-0.775-1.881-1.731v-7.238c0-0.944 0.925-1.719 1.881-1.719 0.944 0 1.719 0.775 1.719 1.719zM6.275 22.594c0 1.025 0.825 1.85 1.85 1.85h1.244l0.019 3.819c0 2.306 3.45 2.287 3.45 0v-3.819h2.325v3.819c0 2.294 3.469 2.3 3.469 0v-3.819h1.262c1.013 0 1.838-0.825 1.838-1.85v-11.213h-15.456v11.213zM21.775 10.775h-15.569c0-2.675 1.6-5 3.975-6.213l-1.194-2.206c-0.175-0.306 0.269-0.5 0.419-0.237l1.212 2.225c2.181-0.969 4.688-0.919 6.769 0l1.206-2.219c0.156-0.269 0.594-0.069 0.419 0.237l-1.194 2.2c2.356 1.213 3.956 3.537 3.956 6.213zM11.107 7.306c0-0.356-0.288-0.656-0.656-0.656-0.356 0-0.638 0.3-0.638 0.656s0.288 0.656 0.638 0.656c0.369 0 0.656-0.3 0.656-0.656zM18.194 7.306c0-0.356-0.288-0.656-0.638-0.656-0.369 0-0.656 0.3-0.656 0.656s0.287 0.656 0.656 0.656c0.35 0 0.638-0.3 0.638-0.656zM24.119 11.063c-0.944 0-1.719 0.756-1.719 1.719v7.238c0 0.962 0.775 1.731 1.719 1.731 0.963 0 1.881-0.775 1.881-1.731v-7.238c0-0.962-0.925-1.719-1.881-1.719z"></path>
</symbol>
<symbol id="icon-apple-blue" viewBox="0 0 32 32">
<path fill="#8886ff" style="fill: var(--color1, #8886ff)" d="M19.842 6.94c-0.931 1.12-2.42 2.003-3.909 1.877-0.186-1.514 0.543-3.122 1.396-4.116 0.931-1.151 2.559-1.971 3.878-2.034 0.155 1.577-0.45 3.122-1.365 4.273zM21.191 9.116c-2.156-0.126-4.002 1.246-5.025 1.246-1.039 0-2.606-1.183-4.312-1.151-2.218 0.032-4.281 1.309-5.413 3.343-2.327 4.068-0.605 10.092 1.644 13.403 1.101 1.64 2.42 3.438 4.157 3.375 1.644-0.063 2.296-1.088 4.281-1.088 2.001 0 2.575 1.088 4.312 1.056 1.799-0.031 2.932-1.64 4.033-3.28 1.256-1.861 1.768-3.674 1.799-3.769-0.031-0.031-3.474-1.372-3.505-5.409-0.031-3.375 2.714-4.983 2.838-5.078-1.551-2.334-3.971-2.586-4.808-2.649z"></path>
</symbol>
</defs>
</svg>
